# xmcd
#
# Track frame offsets:
#	150
#	16192
#	29118
#	51582
#	64011
#	84181
#	109034
#	124209
#	139651
#	167710
#	183028
#	203781
#
# Disc length: 2911 seconds
#
# Revision: 1
# Processed by: cddbd v1.5.2PL0 Copyright (c) Steve Scherf et al.
# Submitted via: audiograbber 1.83.01
#
DISCID=a00b5d0c
DTITLE=Melody Gardot - My one and only thrill
DYEAR=2009
DGENRE=
TTITLE0=Baby I'm A Fool
TTITLE1=If The Stars Were Mine
TTITLE2=Who Will Comfort Me
TTITLE3=Your Heart Is As Black As Night
TTITLE4=Lover Undercover
TTITLE5=Our Love Is Easy
TTITLE6=Les Etoiles
TTITLE7=The Rain
TTITLE8=My One And Only Thrill
TTITLE9=Deep Within The Corners Of My Mind
TTITLE10=Over The Rainbow
TTITLE11=If The Stars Were Mine (Orchestral Version)
EXTD=
EXTT0=
EXTT1=
EXTT2=
EXTT3=
EXTT4=
EXTT5=
EXTT6=
EXTT7=
EXTT8=
EXTT9=
EXTT10=
EXTT11=
PLAYORDER=
